# xmcd
#
# Track frame offsets:
#	150
#	18388
#	33482
#	50221
#	67332
#	84612
#	100791
#	114135
#	125617
#	142055
#	155801
#	171556
#	186789
#	197988
#	211118
#	225266
#
# Disc length: 3209 seconds
#
# Revision: 1
# Processed by: cddbd v1.4PL0 Copyright (c) Steve Scherf et al.
# Submitted via: audiograbber 1.81.02
#
DISCID=eb0c8710
DTITLE=fsaf - 20cm CD1
DYEAR=1900
DGENRE=
TTITLE0=die Rübe - 20 cm
TTITLE1=Alex B. Steiger - es ist geil ein Arschloch zu sein 
TTITLE2=www.bloed-mann.de - eine kleine Nymphomanin
TTITLE3=Olli's great Jokers - uno, dos Baller
TTITLE4=Sandy Blond - ich bin viel schöner
TTITLE5=Partygeier - himbeereis zum Frühstück
TTITLE6=Gunter Bombe - Hände zum Himmel
TTITLE7=die Ferkel - Jung, Junge mensch hat die 'ne
TTITLE8=die girls - Itsy Bitsy Teeny Weeny Honolulu Strandbekini
TTITLE9=Branko Bellmann - ich vermiss' dich
TTITLE10=Gottlieb Wendehals - Mallorca la la la
TTITLE11=Partygeier - aber dich gibt's nur einmal für mich 
TTITLE12=die drei Besoffkis - auf und nieder
TTITLE13=Gunter Bombe - zieh dich aus kleine Maus
TTITLE14=Great Jokers - a klana Indianer
TTITLE15=Partygeier - Hey Baby
EXTD=
EXTT0=
EXTT1=
EXTT2=
EXTT3=
EXTT4=
EXTT5=
EXTT6=
EXTT7=
EXTT8=
EXTT9=
EXTT10=
EXTT11=
EXTT12=
EXTT13=
EXTT14=
EXTT15=
PLAYORDER=
